<?xml version="1.0" encoding="UTF-8"?>
<svg version="1.1" xmlns="http://www.w3.org/2000/svg" viewBox="0 0 538 228">
<path d="M0 0 C1.00071533 0.00491455 2.00143066 0.0098291 3.0324707 0.01489258 C19.86501126 0.27902273 35.58729907 4.35737994 48.75 15.3125 C49.08 15.9725 49.41 16.6325 49.75 17.3125 C44.60887276 16.52155735 40.03515248 14.48171253 35.27734375 12.484375 C31.78698646 11.04592472 28.48705876 9.88743212 24.75 9.3125 C24.75 11.2925 24.75 13.2725 24.75 15.3125 C24.09 15.3125 23.43 15.3125 22.75 15.3125 C20.99966576 13.33209606 19.40777413 11.25506406 17.796875 9.16015625 C12.50283026 4.38137159 2.72555895 5.9321168 -4.07128906 6.17626953 C-14.74765779 6.84384167 -24.6038227 9.69037338 -34.25 14.3125 C-33.610625 15.075625 -32.97125 15.83875 -32.3125 16.625 C-30.25 19.3125 -30.25 19.3125 -29.25 22.3125 C-29.81847656 22.08433594 -30.38695313 21.85617188 -30.97265625 21.62109375 C-36.09452521 19.71428778 -39.82273301 18.716245 -45.25 20.3125 C-47.5681362 22.20361111 -48.91914015 23.65078031 -50.25 26.3125 C-50.92799052 33.20974976 -49.83992747 38.93017873 -47.25 45.3125 C-50.99732842 44.61236221 -52.6866687 43.23716306 -55.078125 40.2109375 C-57.16291523 36.83357732 -58.20941679 33.11951175 -59.25 29.3125 C-66.42644846 36.20146462 -73.13611964 42.69195882 -78.25 51.3125 C-74.62 51.6425 -70.99 51.9725 -67.25 52.3125 C-68.82735939 55.46721877 -69.81352361 57.10911252 -72.08984375 59.56640625 C-75.26980354 63.19609632 -77.58831689 66.98086649 -79.8125 71.25 C-80.38665649 72.33849243 -80.38665649 72.33849243 -80.97241211 73.44897461 C-84.73784996 80.8386763 -87.02141085 88.33271305 -89.25 96.3125 C-83.97 94.9925 -78.69 93.6725 -73.25 92.3125 C-73.58 94.478125 -73.91 96.64375 -74.25 98.875 C-76.2645815 114.05280224 -76.25826162 129.36822128 -72.90625 144.328125 C-72.25 147.3125 -72.25 147.3125 -72.25 150.3125 C-60.79463867 141.22500665 -52.8015906 129.64311653 -45.25 117.3125 C-44.26 117.6425 -43.27 117.9725 -42.25 118.3125 C-41.3814653 120.88216474 -40.71202396 123.30293648 -40.125 125.9375 C-39.87169922 126.98744141 -39.87169922 126.98744141 -39.61328125 128.05859375 C-37.91512767 135.26571802 -37.05599226 142.28982497 -37.0625 149.6875 C-37.06185547 150.45755371 -37.06121094 151.22760742 -37.06054688 152.02099609 C-37.13372703 160.19887892 -38.10341008 168.22494607 -39.25 176.3125 C-37.37699975 176.96411012 -35.5014945 177.60852195 -33.625 178.25 C-32.58085938 178.60964844 -31.53671875 178.96929687 -30.4609375 179.33984375 C-14.28800924 184.23894246 2.95000729 181.53958388 17.72485352 173.90991211 C20.53537663 172.39984781 23.31666128 170.8445265 26.08398438 169.25683594 C27.93996584 168.20482299 29.82628355 167.23469397 31.75 166.3125 C32.94287411 170.18934087 33.75 173.22871923 33.75 177.3125 C46.6999497 170.83752515 54.26048596 156.45093078 58.75 143.3125 C60.90677762 135.72783205 62.23510824 128.17791544 62.75 120.3125 C67.03359673 122.1980148 68.90103592 124.67215701 71.75 128.3125 C77.6901586 107.9889385 77.18598545 87.76002927 68.93359375 68.14453125 C67.71951922 65.23956743 66.7132781 62.30887198 65.75 59.3125 C75.89003638 66.54278681 80.25635427 79.57686783 82.75 91.3125 C85.76194569 109.34374532 82.70167474 127.21276445 76.75 144.3125 C73.86562221 143.01950306 71.87780579 141.65308637 69.75 139.3125 C69.31300781 140.74529297 69.31300781 140.74529297 68.8671875 142.20703125 C62.10804523 163.77858309 49.89496478 179.31498874 30.75 191.3125 C28.75 190.3125 28.75 190.3125 27.8984375 188.02734375 C27.64320312 187.11082031 27.38796875 186.19429687 27.125 185.25 C26.73441406 183.87134766 26.73441406 183.87134766 26.3359375 182.46484375 C26.04589844 181.39943359 26.04589844 181.39943359 25.75 180.3125 C24.9971875 180.69921875 24.244375 181.0859375 23.46875 181.484375 C4.32661304 190.86959749 -15.60666049 193.47430285 -36.25 187.3125 C-40.91778728 185.71369097 -45.13769949 184.05403367 -49.25 181.3125 C-48.81187102 177.15027466 -48.35324018 173.00759802 -47.73828125 168.8671875 C-46.18117206 158.28767967 -45.26163315 147.89061162 -47.25 137.3125 C-47.96285156 138.16972656 -48.67570312 139.02695313 -49.41015625 139.91015625 C-57.02333834 149.02225851 -64.05768293 157.00297039 -74.25 163.3125 C-86.02886066 148.16825058 -85.33707608 125.49133526 -84.25 107.3125 C-83.92 106.3225 -83.59 105.3325 -83.25 104.3125 C-84.06984375 104.60125 -84.8896875 104.89 -85.734375 105.1875 C-86.81203125 105.55875 -87.8896875 105.93 -89 106.3125 C-90.06734375 106.68375 -91.1346875 107.055 -92.234375 107.4375 C-95.25 108.3125 -95.25 108.3125 -99.25 108.3125 C-98.94471064 90.55021 -93.10640942 74.09711413 -83.25 59.3125 C-85.89 58.6525 -88.53 57.9925 -91.25 57.3125 C-85.29082648 41.42137062 -72.64036548 29.63097607 -59.36328125 19.6875 C-56.94244033 17.84073553 -54.79775801 15.98960633 -52.625 13.875 C-48.24558782 10.06207895 -42.70913791 8.93446352 -37.25 7.3125 C-33.55786504 6.03788048 -29.87019646 4.75145394 -26.18359375 3.4609375 C-17.5848405 0.77368579 -8.97141523 -0.05272359 0 0 Z " fill="#FFFFFF" transform="translate(100.25,36.6875)"/>
<path d="M0 0 C1.921875 1.09765625 1.921875 1.09765625 4.671875 3.09765625 C5.331875 2.10765625 5.991875 1.11765625 6.671875 0.09765625 C9.7109375 -0.1953125 9.7109375 -0.1953125 13.296875 -0.08984375 C14.48539062 -0.06277344 15.67390625 -0.03570312 16.8984375 -0.0078125 C17.81367188 0.02699219 18.72890625 0.06179687 19.671875 0.09765625 C19.77367476 7.76559044 19.84350838 15.43334896 19.89160156 23.10180664 C19.91166035 25.70799268 19.93891411 28.31413404 19.97363281 30.92016602 C20.0224013 34.67605651 20.04490217 38.43134955 20.0625 42.1875 C20.08314514 43.34410629 20.10379028 44.50071259 20.12506104 45.69236755 C20.12726601 53.7237917 18.90627429 60.01137021 13.84765625 66.40234375 C4.8702986 73.96816718 -3.71485634 75.0800069 -15.328125 74.09765625 C-21.70103067 72.88689803 -26.27683694 70.07420217 -31.328125 66.09765625 C-30.98799485 60.65557391 -27.62515972 57.16097427 -24.328125 53.09765625 C-23.5546875 53.53078125 -22.78125 53.96390625 -21.984375 54.41015625 C-13.58377648 58.94826769 -13.58377648 58.94826769 -4.328125 59.09765625 C-1.01594537 57.74824973 1.1511523 56.61837895 3.671875 54.09765625 C4.07234944 51.77490448 4.4115854 49.44026268 4.671875 47.09765625 C3.7746875 47.80921875 3.7746875 47.80921875 2.859375 48.53515625 C-2.25774211 52.1902399 -8.30478365 51.6083635 -14.328125 51.09765625 C-21.89623212 49.35298358 -27.05384236 44.43220462 -31.328125 38.09765625 C-34.38701688 30.88385259 -34.57804231 22.17643416 -32.7109375 14.58984375 C-29.80275018 8.02712014 -24.09825949 3.74908258 -18.078125 0.16015625 C-12.21258886 -1.50174566 -5.80785991 -2.25103295 0 0 Z M-17.328125 18.09765625 C-18.58531339 21.86922141 -19.05548763 25.19699589 -18.328125 29.09765625 C-16.44664176 32.85344151 -14.15775041 35.4616902 -10.13671875 36.859375 C-5.11521153 37.64956141 -1.55959312 37.12013348 2.671875 34.09765625 C5.85199541 30.49351978 6.24891233 26.97127612 6.09375 22.31640625 C5.23896089 17.82084872 2.38441467 15.27502728 -1.328125 12.72265625 C-7.45273705 10.80871498 -13.35297803 13.07641798 -17.328125 18.09765625 Z " fill="#FFFFFF" transform="translate(408.328125,145.90234375)"/>
<path d="M0 0 C2.36484242 1.08642265 3.94430356 2.35544284 6 4 C10.01011768 4.42287774 10.01011768 4.42287774 12.4375 2 C17.26042167 -1.44494405 23.3835072 -0.6793015 29 0 C33.35416102 1.27310244 36.03321792 3.65219553 38.375 7.5 C40.88313794 12.90214326 41.13743785 17.35528251 41.09765625 23.265625 C41.0962413 24.05902283 41.09482635 24.85242065 41.09336853 25.66986084 C41.08778415 28.19661272 41.07523454 30.72327504 41.0625 33.25 C41.05748298 34.96614455 41.05292043 36.68229049 41.04882812 38.3984375 C41.03781984 42.59899269 41.02056596 46.79948117 41 51 C36.05 51 31.1 51 26 51 C25.95101562 48.65261719 25.90203125 46.30523437 25.8515625 43.88671875 C25.7975504 41.61297233 25.7402439 39.33933117 25.68261719 37.06567383 C25.64433779 35.48567549 25.60948303 33.90559031 25.578125 32.32543945 C25.53245124 30.05388355 25.47446216 27.78292491 25.4140625 25.51171875 C25.40251129 24.80536789 25.39096008 24.09901703 25.37905884 23.3712616 C25.26928952 19.72258607 25.07857636 18.11786454 23 15 C19.90839219 13.83020245 18.47627332 13.81683841 15.3762207 15.0090332 C12.64649952 16.86964728 12.64649952 16.86964728 12.34057617 20.46166992 C12.29951552 21.88409883 12.28528409 23.30746807 12.29296875 24.73046875 C12.27784744 25.48088943 12.26272614 26.23131012 12.24714661 27.00447083 C12.20419002 29.39911761 12.19542488 31.79250595 12.1875 34.1875 C12.16436157 35.8118826 12.13899758 37.43623514 12.11132812 39.06054688 C12.04420666 43.04105343 12.02333598 47.0180329 12 51 C7.05 51 2.1 51 -3 51 C-3.04898437 48.65261719 -3.09796875 46.30523437 -3.1484375 43.88671875 C-3.2024496 41.61297233 -3.2597561 39.33933117 -3.31738281 37.06567383 C-3.35566221 35.48567549 -3.39051697 33.90559031 -3.421875 32.32543945 C-3.46754876 30.05388355 -3.52553784 27.78292491 -3.5859375 25.51171875 C-3.59748871 24.80536789 -3.60903992 24.09901703 -3.62094116 23.3712616 C-3.73071048 19.72258607 -3.92142364 18.11786454 -6 15 C-9.22916448 13.77815398 -10.55504162 13.80785888 -13.75 15.1875 C-16.36694675 17.29559599 -16.47542743 17.78838633 -17 21 C-17.14819068 23.31536932 -17.24761977 25.63403811 -17.31640625 27.953125 C-17.33718735 28.61334656 -17.35796844 29.27356812 -17.37937927 29.95379639 C-17.44450147 32.05243015 -17.50358502 34.15118372 -17.5625 36.25 C-17.60572079 37.67709547 -17.6493362 39.10417905 -17.69335938 40.53125 C-17.80088351 44.02071259 -17.90023285 47.51027257 -18 51 C-22.62 51 -27.24 51 -32 51 C-32 34.5 -32 18 -32 1 C-27.71 1 -23.42 1 -19 1 C-18.34 1.99 -17.68 2.98 -17 4 C-16.13375 3.01 -16.13375 3.01 -15.25 2 C-10.34453429 -1.01874813 -5.62068887 -0.79315013 0 0 Z " fill="#FFFFFF" transform="translate(386,64)"/>
<path d="M0 0 C1.010625 0.60585938 2.02125 1.21171875 3.0625 1.8359375 C4.031875 2.42632812 5.00125 3.01671875 6 3.625 C7.66626701 4.62566579 9.33279274 5.62590153 11 6.625 C11.66 3.985 12.32 1.345 13 -1.375 C23.38673063 0.00360243 34.1320467 10.10912657 41 17.625 C44.41138504 23.47200807 45.51844697 28.99587123 44.5625 35.6875 C44.2840625 36.6465625 44.2840625 36.6465625 44 37.625 C42.87105124 36.69225891 41.74699124 35.75359878 40.625 34.8125 C39.99851562 34.29042969 39.37203125 33.76835938 38.7265625 33.23046875 C37 31.625 37 31.625 35 28.625 C35.99 27.635 35.99 27.635 37 26.625 C36.83492354 24.04959787 36.83492354 24.04959787 36 21.625 C35.34 21.295 34.68 20.965 34 20.625 C33.46375 21.16125 32.9275 21.6975 32.375 22.25 C30 23.625 30 23.625 26.75 22.8125 C25.8425 22.420625 24.935 22.02875 24 21.625 C27.23300376 26.57553701 30.60280509 30.19017987 35.12890625 33.98046875 C37.40102055 35.97746274 39.22338957 38.18216067 41 40.625 C40.443125 40.480625 39.88625 40.33625 39.3125 40.1875 C32.32264448 38.48726487 26.6113431 37.74059582 19.7265625 40.04296875 C16.88724507 40.69080809 15.57029011 40.91231243 12.94433594 39.58935547 C10.90995662 37.9102427 9.15437536 36.13405209 7.375 34.1875 C6.73949219 33.56939453 6.10398438 32.95128906 5.44921875 32.31445312 C3.68781944 30.48236859 2.24963538 28.83913794 1 26.625 C1.1015625 22.65234375 1.1015625 22.65234375 2 19.625 C1.4225 19.975625 0.845 20.32625 0.25 20.6875 C-2.49656203 21.83190085 -3.22123784 21.55456802 -6 20.625 C-7.73436775 19.71821245 -9.46312065 18.80064086 -11.1875 17.875 C-15.26627997 15.97447368 -17.56580233 15.22222843 -21.875 16.6875 C-23.26462597 17.30123068 -24.64180253 17.94454035 -26 18.625 C-27.010625 19.016875 -28.02125 19.40875 -29.0625 19.8125 C-29.701875 20.080625 -30.34125 20.34875 -31 20.625 C-31 21.285 -31 21.945 -31 22.625 C-25.251472 24.94458147 -20.77993218 25.71847144 -14.5625 25.75 C-7.3335346 26.09078373 -3.97831165 28.09637818 0.96875 33.2578125 C1.6390625 34.03898437 2.309375 34.82015625 3 35.625 C3.5671875 36.26179688 4.134375 36.89859375 4.71875 37.5546875 C5.85602397 38.87518895 6.93743731 40.24366851 8 41.625 C5.43467543 42.90766228 4.73367601 42.32015343 2 41.625 C0.01971597 41.53506631 -1.96300852 41.49353114 -3.9453125 41.484375 C-5.10546875 41.46503906 -6.265625 41.44570312 -7.4609375 41.42578125 C-9.88004469 41.39225418 -12.29941192 41.37372347 -14.71875 41.37109375 C-23.76695118 41.18134119 -30.80288402 39.51500993 -37.5625 33.25 C-39.32105467 30.03872626 -39.71550498 27.25231146 -40 23.625 C-42.64 23.295 -45.28 22.965 -48 22.625 C-46.58956521 19.26334194 -44.98473966 17.52994768 -42.0625 15.375 C-41.37285156 14.85421875 -40.68320313 14.3334375 -39.97265625 13.796875 C-38 12.625 -38 12.625 -35 12.625 C-35 11.965 -35 11.305 -35 10.625 C-35.99 10.295 -36.98 9.965 -38 9.625 C-35.89789827 4.71315834 -32.67516321 2.94423324 -28 0.625 C-17.37825156 -3.49728271 -10.18122848 -6.15548763 0 0 Z " fill="#FFFFFF" transform="translate(116,55.375)"/>
<path d="M0 0 C36.35294118 0 36.35294118 0 45 7 C51.27838309 13.63714784 52.58958689 19.79935027 52.34375 28.7109375 C51.64682738 35.37921981 49.68838564 40.84209157 44.6875 45.4375 C35.55315756 52.3468103 27.27678467 52 16 52 C16 59.92 16 67.84 16 76 C10.72 76 5.44 76 0 76 C0 50.92 0 25.84 0 0 Z M16 15 C16 22.26 16 29.52 16 37 C25.83764709 37.25786394 25.83764709 37.25786394 34 33 C36.43393218 29.29855681 36.19407473 26.37948719 35.61328125 22.125 C34.67018594 18.85720478 32.88089782 17.64622732 30 16 C25.78779356 14.4202491 25.78779356 14.4202491 16 15 Z " fill="#FFFFFF" transform="translate(212,39)"/>
<path d="M0 0 C0.76570313 0.54140625 0.76570313 0.54140625 1.546875 1.09375 C1.546875 -0.22625 1.546875 -1.54625 1.546875 -2.90625 C5.836875 -2.90625 10.126875 -2.90625 14.546875 -2.90625 C14.546875 13.59375 14.546875 30.09375 14.546875 47.09375 C10.256875 47.09375 5.966875 47.09375 1.546875 47.09375 C1.546875 45.77375 1.546875 44.45375 1.546875 43.09375 C0.95261719 43.4546875 0.35835938 43.815625 -0.25390625 44.1875 C-7.5755275 48.28669697 -13.6429483 49.52279022 -21.8671875 47.5 C-28.28796478 45.11703111 -32.69550766 40.73899671 -36.453125 35.09375 C-39.88960626 27.5288785 -40.40750988 20.59754864 -37.953125 12.65625 C-35.22143766 5.66351516 -30.63958642 0.21515764 -23.703125 -2.90625 C-15.14962417 -5.46053709 -7.50563205 -4.79082897 0 0 Z M-21.828125 14.21875 C-24.11954055 18.2727929 -24.45369493 21.54852534 -23.453125 26.09375 C-21.57050222 29.91582946 -19.31223869 32.46099902 -15.2265625 33.8515625 C-11.55559657 34.42860397 -9.11136342 34.35704537 -5.640625 32.96875 C-1.23116066 29.32597015 -1.23116066 29.32597015 0.8984375 24.16796875 C1.08439654 19.67959382 0.42082454 16.68618693 -2.453125 13.09375 C-8.70156156 6.84531344 -15.85022617 8.87010368 -21.828125 14.21875 Z " fill="#FFFFFF" transform="translate(355.453125,148.90625)"/>
<path d="M0 0 C5.69372093 4.46494783 8.28566669 9.82626053 10.015625 16.74609375 C10.015625 20.37609375 10.015625 24.00609375 10.015625 27.74609375 C-7.309375 28.24109375 -7.309375 28.24109375 -24.984375 28.74609375 C-20.43453052 33.87653997 -20.43453052 33.87653997 -14.859375 35.05859375 C-10.68335552 34.72181799 -8.34303561 33.67268226 -4.78125 31.62109375 C-2.984375 30.74609375 -2.984375 30.74609375 0.015625 30.74609375 C1.875 32.13671875 1.875 32.13671875 3.765625 33.99609375 C4.39984375 34.599375 5.0340625 35.20265625 5.6875 35.82421875 C7.015625 37.74609375 7.015625 37.74609375 7.01953125 39.78125 C5.613741 42.53266048 3.87000008 43.4146854 1.203125 44.93359375 C0.33042969 45.44277344 -0.54226563 45.95195312 -1.44140625 46.4765625 C-8.23947615 49.8703762 -16.50023849 49.7742245 -23.8125 48.09765625 C-31.07940865 45.48959394 -36.11053167 41.38821178 -39.6484375 34.51171875 C-41.07019057 30.50420424 -41.48426309 27.00922413 -41.421875 22.80859375 C-41.41575195 22.10565186 -41.40962891 21.40270996 -41.40332031 20.6784668 C-41.23580223 15.12524235 -40.24640696 11.20155204 -36.984375 6.74609375 C-36.1490625 5.41578125 -36.1490625 5.41578125 -35.296875 4.05859375 C-25.79323308 -5.44504817 -11.39972457 -7.20336927 0 0 Z M-22.984375 11.74609375 C-24.469375 14.22109375 -24.469375 14.22109375 -25.984375 16.74609375 C-19.054375 16.74609375 -12.124375 16.74609375 -4.984375 16.74609375 C-6.43550432 11.69881902 -6.43550432 11.69881902 -9.859375 9.93359375 C-15.18535602 7.90972096 -18.28347646 8.84553933 -22.984375 11.74609375 Z " fill="#FFFFFF" transform="translate(527.984375,148.25390625)"/>
<path d="M0 0 C5.90691882 6.31902944 8.8415754 12.96053228 8.8125 21.625 C8.81636719 22.79289062 8.81636719 22.79289062 8.8203125 23.984375 C8.6875 25.875 8.6875 25.875 7.6875 26.875 C5.09390678 26.96351529 2.52710309 26.99025945 -0.06640625 26.97265625 C-0.84185287 26.9712413 -1.6172995 26.96982635 -2.41624451 26.96836853 C-4.90253494 26.96275345 -7.3887366 26.95019846 -9.875 26.9375 C-11.55663933 26.93248694 -13.23828006 26.9279237 -14.91992188 26.92382812 C-19.05081566 26.91277913 -23.18164276 26.89550445 -27.3125 26.875 C-26.549375 27.844375 -25.78625 28.81375 -25 29.8125 C-24.57074219 30.35777344 -24.14148438 30.90304688 -23.69921875 31.46484375 C-21.45554615 33.74643758 -19.23196885 33.88289521 -16.125 34.1875 C-11.98992974 33.84855982 -9.64026679 32.78379367 -6.109375 30.75 C-4.3125 29.875 -4.3125 29.875 -1.3125 29.875 C0.51171875 31.40625 0.51171875 31.40625 2.375 33.375 C2.99761719 34.0246875 3.62023437 34.674375 4.26171875 35.34375 C4.73222656 35.8490625 5.20273437 36.354375 5.6875 36.875 C3.31965827 41.98399183 0.21525558 44.11112221 -4.8125 46.625 C-13.20822716 49.49222003 -22.24269513 48.75609933 -30.2265625 45.07421875 C-35.67027027 41.94459649 -39.92189914 36.76270133 -42.0390625 30.84375 C-44.40051559 21.90171431 -43.17301003 14.1505184 -38.765625 6.0703125 C-35.02609453 0.42080679 -29.3597686 -2.9834627 -22.875 -4.8125 C-14.46504494 -5.83810428 -7.16347337 -4.59543574 0 0 Z M-25.625 11.875 C-27.52745698 13.69363005 -27.52745698 13.69363005 -27.3125 15.875 C-20.3825 15.875 -13.4525 15.875 -6.3125 15.875 C-8.22398584 11.76050649 -8.22398584 11.76050649 -11.3125 8.875 C-17.37719345 7.41498121 -20.90037706 7.78883962 -25.625 11.875 Z " fill="#FFFFFF" transform="translate(304.3125,149.125)"/>
<path d="M0 0 C6.03256746 3.53321755 8.8755197 8.79654119 11.8125 14.9375 C12.73678362 19.55891811 12.4375 24.34955978 12.4375 29.0625 C0.5575 29.0625 -11.3225 29.0625 -23.5625 29.0625 C-19.73178946 34.55790226 -19.73178946 34.55790226 -14.64453125 36.30078125 C-8.63392403 36.49734155 -5.59594477 35.28390465 -0.5625 32.0625 C3.11822261 32.0625 3.63258747 32.79981743 6.1875 35.3125 C6.82171875 35.91578125 7.4559375 36.5190625 8.109375 37.140625 C9.4375 39.0625 9.4375 39.0625 9.33984375 41.1328125 C8.27821997 43.40312482 7.30894844 44.27850659 5.25 45.6875 C4.67894531 46.09226563 4.10789062 46.49703125 3.51953125 46.9140625 C-4.19062689 51.16694523 -13.93193167 51.58597316 -22.36328125 49.3046875 C-24.56130469 48.36637161 -26.53731751 47.32713361 -28.5625 46.0625 C-29.47 45.52625 -30.3775 44.99 -31.3125 44.4375 C-37.60835119 37.7918793 -39.24621624 30.81572425 -39.08789062 21.83178711 C-38.72569402 14.67071595 -36.76707327 10.61516379 -32.1875 5.3125 C-23.06265289 -2.50879752 -11.33846965 -5.02971748 0 0 Z M-20.5625 13.0625 C-22.0475 15.5375 -22.0475 15.5375 -23.5625 18.0625 C-16.6325 18.0625 -9.7025 18.0625 -2.5625 18.0625 C-4.79063379 13.60623242 -6.27472521 11.92814451 -10.875 10.1875 C-14.77991088 10.00587624 -17.17300008 11.17944449 -20.5625 13.0625 Z " fill="#FFFFFF" transform="translate(490.5625,65.9375)"/>
<path d="M0 0 C5.09874368 4.17910726 8.25878961 8.27197403 10.7109375 14.40234375 C10.7109375 19.02234375 10.7109375 23.64234375 10.7109375 28.40234375 C-0.8390625 28.40234375 -12.3890625 28.40234375 -24.2890625 28.40234375 C-21.61902314 33.35773052 -21.61902314 33.35773052 -17.2890625 35.40234375 C-10.13008028 36.70273249 -5.17707915 34.29984886 0.7109375 30.40234375 C1.86287373 31.50014199 3.00728687 32.60583821 4.1484375 33.71484375 C4.78652344 34.32972656 5.42460937 34.94460937 6.08203125 35.578125 C7.7109375 37.40234375 7.7109375 37.40234375 8.7109375 40.40234375 C0.46574336 48.14631029 -5.32408404 49.95237772 -16.69140625 49.68359375 C-24.34233051 49.08547589 -30.19060379 46.18663574 -35.2890625 40.40234375 C-40.14186669 32.77020625 -41.46392582 24.94493121 -39.86328125 16.03125 C-37.93426445 9.20276723 -34.11023831 4.14833042 -28.359375 0.015625 C-20.28683128 -4.32527115 -7.94742189 -4.87603832 0 0 Z M-18.2265625 10.58984375 C-19.29197266 10.92048828 -19.29197266 10.92048828 -20.37890625 11.2578125 C-22.92112805 12.51906566 -22.92112805 12.51906566 -24.2890625 17.40234375 C-17.3590625 17.40234375 -10.4290625 17.40234375 -3.2890625 17.40234375 C-6.73767413 11.65465769 -7.45839765 11.45387398 -13.2890625 9.40234375 C-15.03090068 9.40234375 -16.5816356 10.05144995 -18.2265625 10.58984375 Z " fill="#FFFFFF" transform="translate(338.2890625,66.59765625)"/>
<path d="M0 0 C3.08708331 3.70589056 5.73750332 7.57910265 8.25 11.6875 C8.61351562 12.26822266 8.97703125 12.84894531 9.3515625 13.44726562 C12 17.7534657 12 17.7534657 12 20 C17.61682832 15.42928584 22.51922228 10.40273454 27.31762695 5.00097656 C30.80567693 1.09716154 30.80567693 1.09716154 33 0 C33.99 9.9 33.99 9.9 35 20 C38.96 16.04 42.92 12.08 47 8 C47.99 8.495 47.99 8.495 49 9 C48.73445313 9.72703125 48.46890625 10.4540625 48.1953125 11.203125 C45.92881273 17.65520464 44.36489708 23.81580026 43.4921875 30.6015625 C43 33 43 33 41 35 C38.42329041 34.64187075 35.97250502 34.17967256 33.4375 33.625 C9.50910969 28.9603882 -11.05952072 34.52442026 -33 44 C-33.67095703 42.515 -33.67095703 42.515 -34.35546875 41 C-37.53985502 34.02471974 -40.82704119 27.44911817 -45 21 C-45 20.34 -45 19.68 -45 19 C-39.19657726 20.48805711 -34.82409121 23.59097555 -30 27 C-30.54881057 20.64780958 -31.16511613 14.32126362 -32 8 C-28.89511539 8.61255165 -26.7971672 9.61906837 -24.21484375 11.43359375 C-23.17166992 12.1596582 -23.17166992 12.1596582 -22.10742188 12.90039062 C-21.39134766 13.40763672 -20.67527344 13.91488281 -19.9375 14.4375 C-18.50912444 15.43621201 -17.08073939 16.43491045 -15.65234375 17.43359375 C-15.02320068 17.87759521 -14.39405762 18.32159668 -13.74584961 18.77905273 C-12.1790923 19.8747531 -10.59078089 20.93947941 -9 22 C-5.93595048 14.69148844 -2.91791829 7.36815121 0 0 Z " fill="#FFFFFF" transform="translate(85,1)"/>
<path d="M0 0 C5.28 0 10.56 0 16 0 C16 19.47 16 38.94 16 59 C26.23 59 36.46 59 47 59 C47 63.95 47 68.9 47 74 C31.49 74 15.98 74 0 74 C0 49.58 0 25.16 0 0 Z " fill="#FFFFFF" transform="translate(212,122)"/>
<path d="M0 0 C4.62 0 9.24 0 14 0 C14.04898437 1.94003906 14.09796875 3.88007813 14.1484375 5.87890625 C14.22349132 8.44011789 14.29903802 11.00131513 14.375 13.5625 C14.4059375 14.83931641 14.436875 16.11613281 14.46875 17.43164062 C14.6609691 23.59867011 14.84925311 29.18598909 17 35 C18.58129029 35.22331199 20.16521089 35.42804644 21.75 35.625 C22.63171875 35.74101562 23.5134375 35.85703125 24.421875 35.9765625 C27.31813317 36.00289212 28.64615817 35.66815747 31 34 C33.33281611 30.46774945 33.30828291 27.20753897 33.4140625 23.046875 C33.43342865 22.38665344 33.4527948 21.72643188 33.4727478 21.04620361 C33.53229349 18.94759847 33.57882722 16.84893772 33.625 14.75 C33.66320294 13.3228934 33.70225602 11.89580928 33.7421875 10.46875 C33.83956786 6.97928695 33.91932976 3.49004915 34 0 C38.95 0 43.9 0 49 0 C49.06924888 4.41141001 49.12886267 8.82089937 49.16479492 13.23242188 C49.17978888 14.72988307 49.20019105 16.22730105 49.22631836 17.72460938 C49.40600552 28.29444217 49.42942444 37.28109173 41.77734375 45.45703125 C35.68669737 50.74451547 29.10869059 51.66464008 21.21875 51.37890625 C13.58868583 50.48070695 8.03210181 47.95798535 3.15625 41.9765625 C0.14580115 36.83032223 -0.27989056 31.81640951 -0.1953125 25.9765625 C-0.1924826 25.23038666 -0.18965271 24.48421082 -0.18673706 23.71542358 C-0.17561687 21.35178012 -0.15052821 18.98852732 -0.125 16.625 C-0.11495962 15.01432842 -0.10583562 13.40365085 -0.09765625 11.79296875 C-0.0757044 7.86183056 -0.04123185 3.93098133 0 0 Z " fill="#FFFFFF" transform="translate(434,146)"/>
<path d="M0 0 C1 1 1 1 1.09765625 4.16015625 C1.08605469 5.44792969 1.07445312 6.73570313 1.0625 8.0625 C1.05347656 9.35285156 1.04445313 10.64320312 1.03515625 11.97265625 C1.02355469 12.97167969 1.01195312 13.97070312 1 15 C-0.216875 14.938125 -1.43375 14.87625 -2.6875 14.8125 C-6.59741696 14.8125 -8.87269312 15.51655042 -12 18 C-14.42170679 21.63256018 -14.3044503 23.52578695 -14.4140625 27.85546875 C-14.43342865 28.51710526 -14.4527948 29.17874176 -14.4727478 29.86042786 C-14.53242687 31.96932164 -14.57888087 34.07827037 -14.625 36.1875 C-14.66319066 37.61916415 -14.70224303 39.05080559 -14.7421875 40.48242188 C-14.83973852 43.98816165 -14.91939462 47.49366577 -15 51 C-19.95 51 -24.9 51 -30 51 C-30 34.5 -30 18 -30 1 C-25.71 1 -21.42 1 -17 1 C-16.34 2.32 -15.68 3.64 -15 5 C-14.236875 4.360625 -13.47375 3.72125 -12.6875 3.0625 C-8.45498375 -0.18571014 -5.21945547 -0.19331317 0 0 Z " fill="#FFFFFF" transform="translate(537,64)"/>
<path d="M0 0 C1 1 1 1 1.09765625 4.16015625 C1.08605469 5.44792969 1.07445312 6.73570313 1.0625 8.0625 C1.05347656 9.35285156 1.04445313 10.64320312 1.03515625 11.97265625 C1.02355469 12.97167969 1.01195312 13.97070312 1 15 C-0.63001953 14.96326172 -0.63001953 14.96326172 -2.29296875 14.92578125 C-6.45861446 15.00918195 -8.56064775 15.68043686 -12 18 C-14.01116799 21.87401341 -14.29556323 25.28805787 -14.4140625 29.61328125 C-14.47207031 31.4840332 -14.47207031 31.4840332 -14.53125 33.39257812 C-14.5621875 34.68615234 -14.593125 35.97972656 -14.625 37.3125 C-14.68300781 39.28186523 -14.68300781 39.28186523 -14.7421875 41.29101562 C-14.83632859 44.52711551 -14.91924784 47.76353834 -15 51 C-19.62 51 -24.24 51 -29 51 C-29 34.5 -29 18 -29 1 C-24.71 1 -20.42 1 -16 1 C-15.67 2.32 -15.34 3.64 -15 5 C-14.2575 4.360625 -13.515 3.72125 -12.75 3.0625 C-8.49102342 -0.13173244 -5.27552269 -0.23446768 0 0 Z " fill="#FFFFFF" transform="translate(297,64)"/>
<path d="M0 0 C2.87108107 2.96590576 3.13050541 4.98871901 3.44140625 9.07421875 C3.13437306 13.29703757 2.75090017 15.4680632 -0.0078125 18.7109375 C-2.8589739 20.84625809 -5.71820689 22.54485226 -8.87109375 24.19921875 C-9.75410156 24.71226562 -10.63710937 25.2253125 -11.546875 25.75390625 C-16.76252994 28.62535547 -20.97953445 29.60819643 -26.87109375 30.19921875 C-28.57867628 27.2938731 -30.25847729 24.37338457 -31.93359375 21.44921875 C-32.41892578 20.62421875 -32.90425781 19.79921875 -33.40429688 18.94921875 C-33.85869141 18.15 -34.31308594 17.35078125 -34.78125 16.52734375 C-35.20543213 15.79418945 -35.62961426 15.06103516 -36.06665039 14.30566406 C-37.03191503 11.77810616 -36.88474025 10.67932653 -35.87109375 8.19921875 C-25.08836674 -1.53791049 -13.11979892 -8.07522646 0 0 Z " fill="#FFFFFF" transform="translate(140.87109375,106.80078125)"/>
<path d="M0 0 C4.62 0 9.24 0 14 0 C14 16.5 14 33 14 50 C9.38 50 4.76 50 0 50 C0 33.5 0 17 0 0 Z " fill="#FFFFFF" transform="translate(433,65)"/>
<path d="M0 0 C2.86278352 0.93250278 3.90125926 1.84871455 5.6484375 4.28125 C7.79593636 8.71681128 7.89702569 12.13201554 6.3984375 16.78125 C3.82229683 23.26975384 0.79043306 28.58525222 -5.6015625 31.78125 C-6.2615625 27.49125 -6.9215625 23.20125 -7.6015625 18.78125 C-8.7771875 19.585625 -9.9528125 20.39 -11.1640625 21.21875 C-15.08131908 23.69060175 -18.01070465 24.49432138 -22.6015625 24.78125 C-23.60665051 22.99243264 -24.60548986 21.20010304 -25.6015625 19.40625 C-26.436875 17.90964844 -26.436875 17.90964844 -27.2890625 16.3828125 C-28.6015625 13.78125 -28.6015625 13.78125 -28.6015625 11.78125 C-27.3434375 11.45125 -26.0853125 11.12125 -24.7890625 10.78125 C-20.53315864 9.41589743 -17.68294589 7.40361564 -14.2265625 4.59375 C-9.48195872 1.00197832 -5.98569146 -0.48022739 0 0 Z " fill="#FFFFFF" transform="translate(147.6015625,133.21875)"/>
<path d="M0 0 C3.68496155 9.21240388 3.74872232 19.54891367 1 29 C0.67 29.66 0.34 30.32 0 31 C-0.66 31 -1.32 31 -2 31 C-3.65625 28.8828125 -3.65625 28.8828125 -5.5 26.125 C-8.01696681 22.37124832 -8.01696681 22.37124832 -11 19 C-11.7433911 14.24717166 -11.81131156 9.74429209 -11 5 C-8.06116514 0.99745694 -4.91486671 -1.6382889 0 0 Z " fill="#FFFFFF" transform="translate(160,104)"/>
<path d="M0 0 C1.54721252 3.36746254 1.57660188 5.64952407 1.0625 9.3125 C-0.93274923 12.24302231 -2.36586485 13.95771503 -5.91015625 14.7578125 C-9.47658774 14.95779931 -11.53584205 14.62146766 -14.375 12.4375 C-16.97941134 8.89550058 -17.36991556 6.72313875 -16.9375 2.3125 C-15.25904253 -0.38502093 -13.96493638 -2.15606739 -11.125 -3.625 C-6.89067168 -3.74598081 -3.21322355 -2.79861406 0 0 Z " fill="#FFFFFF" transform="translate(447.9375,44.6875)"/>
</svg>
